<?xml version="1.0" encoding="utf-8"?>
<!-- Generator: Adobe Illustrator 18.1.1, SVG Export Plug-In . SVG Version: 6.00 Build 0)  -->
<svg version="1.1" id="Lager_1" xmlns="http://www.w3.org/2000/svg" xmlns:xlink="http://www.w3.org/1999/xlink" x="0px" y="0px"
	 viewBox="0 0 39.7 39.7" enable-background="new 0 0 39.7 39.7" xml:space="preserve">
<radialGradient id="SVGID_1_" cx="20.3765" cy="20.6712" r="0.6868" gradientTransform="matrix(28.8911 0 0 28.8911 -568.8565 -577.3713)" gradientUnits="userSpaceOnUse">
	<stop  offset="0.9617" style="stop-color:#FFFFFF"/>
	<stop  offset="0.9907" style="stop-color:#E3E3E3"/>
	<stop  offset="1" style="stop-color:#D9D9D9"/>
</radialGradient>
<path fill="url(#SVGID_1_)" d="M34.8,8.1L34.8,8.1c2.7,3.4,4,7.5,4,11.7c0,5.1-2,9.9-5.6,13.4c-3.6,3.6-8.4,5.6-13.4,5.6
	c-5.1,0-9.9-2-13.4-5.6c-3.6-3.6-5.6-8.4-5.6-13.4s2-9.9,5.6-13.4s8.4-5.6,13.4-5.6c4.2,0,8.3,1.4,11.6,3.9l0.1,0.1l-0.1-1.1
	C28.1,1.3,24.1,0,19.8,0c-5.3,0-10.3,2.1-14,5.8C2.1,9.6,0,14.5,0,19.8s2.1,10.3,5.8,14c3.7,3.7,8.7,5.8,14,5.8
	c5.3,0,10.3-2.1,14-5.8c3.7-3.7,5.8-8.7,5.8-14c0-4.2-1.3-8.3-3.8-11.6L34.8,8.1z"/>
<radialGradient id="SVGID_2_" cx="20.2545" cy="20.305" r="1.0505" gradientTransform="matrix(28.8911 0 0 28.8911 -568.8565 -577.3713)" gradientUnits="userSpaceOnUse">
	<stop  offset="0" style="stop-color:#F2F2F2"/>
	<stop  offset="0.475" style="stop-color:#F0F0F0"/>
	<stop  offset="0.6458" style="stop-color:#EAEAEA"/>
	<stop  offset="0.6982" style="stop-color:#E5E5E5"/>
	<stop  offset="0.8646" style="stop-color:#D9D9D9"/>
</radialGradient>
<path fill="url(#SVGID_2_)" d="M5.6,16.7c0.6-2.7,2-5.2,3.9-7.2c2.8-2.8,6.4-4.3,10.3-4.3s7.6,1.5,10.3,4.3c2,2,3.4,4.5,3.9,7.2H5.6
	z M19.8,34.5c-3.9,0-7.6-1.5-10.3-4.3c-2-2-3.4-4.5-3.9-7.2h28.6c-0.6,2.7-2,5.2-3.9,7.2C27.4,32.9,23.7,34.5,19.8,34.5z M36.6,6.6
	c0.7,0.9,1.3,1.8,1.9,2.8l0.3,0V1h-8.5l0,0.3c1,0.6,1.9,1.2,2.8,1.9l-1.6,1.6c-3.2-2.5-7.3-4-11.7-4C9.3,0.7,0.7,9.3,0.7,19.8
	S9.3,39,19.8,39S39,30.4,39,19.8c0-4.4-1.5-8.4-4-11.7L36.6,6.6z"/>
<radialGradient id="SVGID_3_" cx="20.4056" cy="20.1964" r="1.1055" gradientTransform="matrix(28.8911 0 0 28.8911 -568.8565 -577.3713)" gradientUnits="userSpaceOnUse">
	<stop  offset="0" style="stop-color:#FFFFFF"/>
	<stop  offset="0.554" style="stop-color:#FDFDFD"/>
	<stop  offset="0.7533" style="stop-color:#F6F6F6"/>
	<stop  offset="0.8951" style="stop-color:#EBEBEB"/>
	<stop  offset="0.9361" style="stop-color:#E5E5E5"/>
</radialGradient>
<path fill="url(#SVGID_3_)" d="M5.6,16.7c0.6-2.7,2-5.2,3.9-7.2c2.8-2.8,6.4-4.3,10.3-4.3s7.6,1.5,10.3,4.3c2,2,3.4,4.5,3.9,7.2H5.6
	z M19.8,34.5c-3.9,0-7.6-1.5-10.3-4.3c-2-2-3.4-4.5-3.9-7.2h28.6c-0.6,2.7-2,5.2-3.9,7.2C27.4,32.9,23.7,34.5,19.8,34.5z M36.6,6.6
	c0.7,0.9,1.3,1.8,1.9,2.8l0.3,0V1h-8.5l0,0.3c1,0.6,1.9,1.2,2.8,1.9l-1.6,1.6c-3.2-2.5-7.3-4-11.7-4C9.3,0.7,0.7,9.3,0.7,19.8
	S9.3,39,19.8,39S39,30.4,39,19.8c0-4.4-1.5-8.4-4-11.7L36.6,6.6z"/>
<radialGradient id="SVGID_4_" cx="20.4056" cy="20.1964" r="1.1055" gradientTransform="matrix(28.8911 0 0 28.8911 -568.8565 -577.3713)" gradientUnits="userSpaceOnUse">
	<stop  offset="0" style="stop-color:#F7F7F7"/>
	<stop  offset="0.5952" style="stop-color:#F5F5F5"/>
	<stop  offset="0.8093" style="stop-color:#EFEFEF"/>
	<stop  offset="0.9361" style="stop-color:#E5E5E5"/>
</radialGradient>
<path fill="url(#SVGID_4_)" d="M5.6,16.7c0.6-2.7,2-5.2,3.9-7.2c2.8-2.8,6.4-4.3,10.3-4.3s7.6,1.5,10.3,4.3c2,2,3.4,4.5,3.9,7.2H5.6
	z M19.8,34.5c-3.9,0-7.6-1.5-10.3-4.3c-2-2-3.4-4.5-3.9-7.2h28.6c-0.6,2.7-2,5.2-3.9,7.2C27.4,32.9,23.7,34.5,19.8,34.5z M36.6,6.6
	c0.7,0.9,1.3,1.8,1.9,2.8l0.3,0V1h-8.5l0,0.3c1,0.6,1.9,1.2,2.8,1.9l-1.6,1.6c-3.2-2.5-7.3-4-11.7-4C9.3,0.7,0.7,9.3,0.7,19.8
	S9.3,39,19.8,39S39,30.4,39,19.8c0-4.4-1.5-8.4-4-11.7L36.6,6.6z"/>
<g>
	<polygon fill="none" points="34.4,16.8 5.2,16.8 5.4,16.6 6.9,15.9 32.7,15.9 34.3,16.6 	"/>
	<path fill="none" d="M32.7,15.9c-0.6-2.1-1.8-4-3.4-5.6c-2.5-2.5-5.9-3.9-9.5-3.9s-7,1.4-9.5,3.9c-1.6,1.6-2.7,3.5-3.4,5.6
		l-1.5,0.7l-0.2,0.1c0.6-2.8,2-5.4,4.1-7.5c2.8-2.8,6.6-4.4,10.6-4.4c4,0,7.7,1.6,10.6,4.4c2.1,2.1,3.5,4.6,4.1,7.5l-0.2-0.1
		L32.7,15.9z"/>
	<polygon fill="none" points="5.2,22.9 34.4,22.9 34.3,23.1 32.7,23.8 6.9,23.8 5.4,23.1 	"/>
	<path fill="none" d="M5.2,22.9c0.6,2.8,2,5.4,4.1,7.5c2.8,2.8,6.6,4.4,10.6,4.4c4,0,7.7-1.6,10.6-4.4c2.1-2.1,3.5-4.6,4.1-7.5
		l-0.2,0.1l-1.5,0.7c-0.6,2.1-1.8,4-3.4,5.6c-2.5,2.5-5.9,3.9-9.5,3.9s-7-1.4-9.5-3.9c-1.6-1.6-2.7-3.5-3.4-5.6l-1.5-0.7L5.2,22.9z"
		/>
	<linearGradient id="SVGID_5_" gradientUnits="userSpaceOnUse" x1="24.0161" y1="22.8839" x2="15.6487" y2="10.6015">
		<stop  offset="0" style="stop-color:#D9D9D9"/>
		<stop  offset="0.305" style="stop-color:#D6D6D6"/>
		<stop  offset="0.5312" style="stop-color:#CCCCCC"/>
		<stop  offset="0.732" style="stop-color:#BCBCBC"/>
		<stop  offset="0.9169" style="stop-color:#A6A6A6"/>
		<stop  offset="1" style="stop-color:#999999"/>
	</linearGradient>
	<polygon fill="url(#SVGID_5_)" points="34.4,16.8 5.2,16.8 5.4,16.6 6.9,15.9 32.7,15.9 34.3,16.6 	"/>
	<linearGradient id="SVGID_6_" gradientUnits="userSpaceOnUse" x1="25.5778" y1="31.2928" x2="16.0138" y2="17.347">
		<stop  offset="0" style="stop-color:#BFBFBF"/>
		<stop  offset="0.3326" style="stop-color:#BCBCBC"/>
		<stop  offset="0.5792" style="stop-color:#B3B3B3"/>
		<stop  offset="0.7974" style="stop-color:#A3A3A3"/>
		<stop  offset="0.9991" style="stop-color:#8C8C8C"/>
		<stop  offset="1" style="stop-color:#8C8C8C"/>
	</linearGradient>
	<polygon fill="url(#SVGID_6_)" points="5.2,22.9 34.4,22.9 34.3,23.1 32.7,23.8 6.9,23.8 5.4,23.1 	"/>
	
		<radialGradient id="SVGID_7_" cx="20.3837" cy="20.5786" r="0.5639" fx="19.8739" fy="20.5761" gradientTransform="matrix(0.3206 28.8893 -38.5386 0.4277 806.5869 -580.506)" gradientUnits="userSpaceOnUse">
		<stop  offset="0.7783" style="stop-color:#FFFFFF"/>
		<stop  offset="0.7799" style="stop-color:#E2E2E2"/>
		<stop  offset="0.7822" style="stop-color:#BCBCBC"/>
		<stop  offset="0.7847" style="stop-color:#9A9A9A"/>
		<stop  offset="0.7875" style="stop-color:#7E7E7E"/>
		<stop  offset="0.7907" style="stop-color:#676767"/>
		<stop  offset="0.7943" style="stop-color:#555555"/>
		<stop  offset="0.7986" style="stop-color:#494949"/>
		<stop  offset="0.8045" style="stop-color:#424242"/>
		<stop  offset="0.8187" style="stop-color:#404040"/>
		<stop  offset="0.825" style="stop-color:#444444;stop-opacity:0.8622"/>
		<stop  offset="0.8316" style="stop-color:#515151;stop-opacity:0.7174"/>
		<stop  offset="0.8383" style="stop-color:#666666;stop-opacity:0.5694"/>
		<stop  offset="0.8452" style="stop-color:#838383;stop-opacity:0.4191"/>
		<stop  offset="0.8521" style="stop-color:#A9A9A9;stop-opacity:0.267"/>
		<stop  offset="0.859" style="stop-color:#D7D7D7;stop-opacity:0.1157"/>
		<stop  offset="0.8643" style="stop-color:#FFFFFF;stop-opacity:0"/>
		<stop  offset="0.9975" style="stop-color:#FFFFFF"/>
	</radialGradient>
	<path fill="url(#SVGID_7_)" d="M32.7,15.9c-0.6-2.1-1.8-4-3.4-5.6c-2.5-2.5-5.9-3.9-9.5-3.9s-7,1.4-9.5,3.9
		c-1.6,1.6-2.7,3.5-3.4,5.6l-1.5,0.7l-0.2,0.1c0.6-2.8,2-5.4,4.1-7.5c2.8-2.8,6.6-4.4,10.6-4.4c4,0,7.7,1.6,10.6,4.4
		c2.1,2.1,3.5,4.6,4.1,7.5l-0.2-0.1L32.7,15.9z M5.2,22.9c0.6,2.8,2,5.4,4.1,7.5c2.8,2.8,6.6,4.4,10.6,4.4c4,0,7.7-1.6,10.6-4.4
		c2.1-2.1,3.5-4.6,4.1-7.5l-0.2,0.1l-1.5,0.7c-0.6,2.1-1.8,4-3.4,5.6c-2.5,2.5-5.9,3.9-9.5,3.9s-7-1.4-9.5-3.9
		c-1.6-1.6-2.7-3.5-3.4-5.6l-1.5-0.7L5.2,22.9z"/>
	<linearGradient id="SVGID_8_" gradientUnits="userSpaceOnUse" x1="32.7256" y1="4.261" x2="31.9562" y2="3.539">
		<stop  offset="2.396490e-02" style="stop-color:#FFFFFF"/>
		<stop  offset="0.1752" style="stop-color:#FAFAFA"/>
		<stop  offset="0.3616" style="stop-color:#EBEBEB"/>
		<stop  offset="0.5664" style="stop-color:#D2D2D2"/>
		<stop  offset="0.7832" style="stop-color:#AFAFAF"/>
		<stop  offset="1" style="stop-color:#858585"/>
	</linearGradient>
	<polygon fill="url(#SVGID_8_)" points="31.5,4.8 33.3,3.1 32,3.2 31.5,3.8 	"/>
	<linearGradient id="SVGID_9_" gradientUnits="userSpaceOnUse" x1="35.7038" y1="8.2104" x2="35.7321" y2="6.2806">
		<stop  offset="3.367100e-02" style="stop-color:#D9D9D9"/>
		<stop  offset="0.2004" style="stop-color:#D3D3D3"/>
		<stop  offset="0.4059" style="stop-color:#C4C4C4"/>
		<stop  offset="0.6318" style="stop-color:#ABABAB"/>
		<stop  offset="0.8705" style="stop-color:#898989"/>
		<stop  offset="1" style="stop-color:#737373"/>
	</linearGradient>
	<polygon fill="url(#SVGID_9_)" points="35.9,8.2 36.5,7.6 36.6,6.4 34.8,8.1 	"/>
	<linearGradient id="SVGID_10_" gradientUnits="userSpaceOnUse" x1="39.054" y1="10.1134" x2="38.9861" y2="0.4139">
		<stop  offset="0" style="stop-color:#D9D9D9"/>
		<stop  offset="0.3923" style="stop-color:#D3D3D3"/>
		<stop  offset="0.8746" style="stop-color:#C4C4C4"/>
		<stop  offset="1" style="stop-color:#BFBFBF"/>
	</linearGradient>
	<polygon fill="url(#SVGID_10_)" points="38.6,1.1 38.6,9.3 39.4,10.1 39.4,0.3 	"/>
	<linearGradient id="SVGID_11_" gradientUnits="userSpaceOnUse" x1="29.5826" y1="0.6768" x2="39.4299" y2="0.6768">
		<stop  offset="8.952520e-03" style="stop-color:#F0F0F0"/>
		<stop  offset="1" style="stop-color:#C9C9C9"/>
	</linearGradient>
	<polygon fill="url(#SVGID_11_)" points="39.4,0.3 29.6,0.3 30.4,1.1 38.6,1.1 	"/>
</g>
<g>
	<linearGradient id="SVGID_12_" gradientUnits="userSpaceOnUse" x1="29.2508" y1="1.5081" x2="30.1895" y2="0.4877">
		<stop  offset="0" style="stop-color:#808080"/>
		<stop  offset="0.1359" style="stop-color:#868686"/>
		<stop  offset="0.3212" style="stop-color:#979797"/>
		<stop  offset="0.535" style="stop-color:#B4B4B4"/>
		<stop  offset="0.7683" style="stop-color:#DBDBDB"/>
		<stop  offset="0.9474" style="stop-color:#FFFFFF"/>
	</linearGradient>
	<polygon fill="url(#SVGID_12_)" points="30.4,1.1 30.4,1.1 29.6,0.3 29.6,1.6 	"/>
	
		<radialGradient id="SVGID_13_" cx="20.3833" cy="20.7158" r="0.7918" gradientTransform="matrix(28.8911 0 0 28.8911 -568.8565 -577.3713)" gradientUnits="userSpaceOnUse">
		<stop  offset="0.9604" style="stop-color:#262626"/>
		<stop  offset="0.9749" style="stop-color:#414141"/>
		<stop  offset="0.9804" style="stop-color:#4C4C4C"/>
	</radialGradient>
	<path fill="url(#SVGID_13_)" d="M36.5,7.6c0.6,0.8,1.1,1.6,1.6,2.5l0.5-0.8c-0.5-1-1.2-1.9-1.9-2.8l-0.1-0.1L36.5,7.6z"/>
	<linearGradient id="SVGID_14_" gradientUnits="userSpaceOnUse" x1="32.5584" y1="4.2065" x2="31.8737" y2="3.0621">
		<stop  offset="0.3819" style="stop-color:#FFFFFF"/>
		<stop  offset="0.4649" style="stop-color:#E4E4E4"/>
		<stop  offset="0.6446" style="stop-color:#AEAEAE"/>
		<stop  offset="0.8001" style="stop-color:#878787"/>
		<stop  offset="0.9237" style="stop-color:#6F6F6F"/>
		<stop  offset="1" style="stop-color:#666666"/>
	</linearGradient>
	<polygon fill="url(#SVGID_14_)" points="31.5,4.8 33.3,3.1 32,3.2 31.5,3.8 	"/>
	<linearGradient id="SVGID_15_" gradientUnits="userSpaceOnUse" x1="35.7078" y1="7.2622" x2="36.3645" y2="7.9996">
		<stop  offset="8.672620e-03" style="stop-color:#666666"/>
		<stop  offset="0.4005" style="stop-color:#4A4A4A"/>
		<stop  offset="0.7442" style="stop-color:#393939"/>
		<stop  offset="1" style="stop-color:#333333"/>
	</linearGradient>
	<polygon fill="url(#SVGID_15_)" points="35.9,8.2 36.5,7.6 36.6,6.4 34.8,8.1 	"/>
	
		<radialGradient id="SVGID_16_" cx="20.3661" cy="20.6947" r="0.783" gradientTransform="matrix(28.8911 0 0 28.8911 -568.8565 -577.3713)" gradientUnits="userSpaceOnUse">
		<stop  offset="0.9528" style="stop-color:#262626"/>
		<stop  offset="0.9615" style="stop-color:#393939"/>
		<stop  offset="0.9724" style="stop-color:#4C4C4C"/>
	</radialGradient>
	<path fill="url(#SVGID_16_)" d="M33.3,3.1L33.2,3c-0.9-0.7-1.8-1.3-2.8-1.9l-0.8,0.5c0.9,0.5,1.7,1,2.5,1.6L33.3,3.1z"/>
	<linearGradient id="SVGID_17_" gradientUnits="userSpaceOnUse" x1="38.7508" y1="10.159" x2="38.7176" y2="9.297">
		<stop  offset="0" style="stop-color:#262626"/>
		<stop  offset="0.7671" style="stop-color:#3F3F3F"/>
		<stop  offset="1" style="stop-color:#474747"/>
	</linearGradient>
	<polygon fill="url(#SVGID_17_)" points="38.1,10.1 39.4,10.1 38.6,9.3 38.6,9.3 	"/>
	<linearGradient id="SVGID_18_" gradientUnits="userSpaceOnUse" x1="38.6033" y1="5.1871" x2="39.4299" y2="5.1871">
		<stop  offset="5.000000e-03" style="stop-color:#737373"/>
		<stop  offset="0.312" style="stop-color:#6D6D6D"/>
		<stop  offset="0.6893" style="stop-color:#5E5E5E"/>
		<stop  offset="1" style="stop-color:#4C4C4C"/>
	</linearGradient>
	<polygon fill="url(#SVGID_18_)" points="38.6,1.1 38.6,9.3 39.4,10.1 39.4,0.3 	"/>
	<linearGradient id="SVGID_19_" gradientUnits="userSpaceOnUse" x1="34.5063" y1="0.1216" x2="34.5063" y2="0.7874">
		<stop  offset="0" style="stop-color:#C9C9C9"/>
		<stop  offset="1" style="stop-color:#FFFFFF"/>
	</linearGradient>
	<polygon fill="url(#SVGID_19_)" points="39.4,0.3 29.6,0.3 30.4,1.1 38.6,1.1 	"/>
	<linearGradient id="SVGID_20_" gradientUnits="userSpaceOnUse" x1="19.8416" y1="16.7175" x2="19.8617" y2="15.9776">
		<stop  offset="0" style="stop-color:#E5E5E5"/>
		<stop  offset="1" style="stop-color:#CCCCCC"/>
	</linearGradient>
	<polygon fill="url(#SVGID_20_)" points="34.4,16.8 5.2,16.8 5.4,16.6 6.9,15.9 32.7,15.9 34.3,16.6 	"/>
	<linearGradient id="SVGID_21_" gradientUnits="userSpaceOnUse" x1="19.8544" y1="23.8587" x2="19.8449" y2="23.0946">
		<stop  offset="0" style="stop-color:#E5E5E5"/>
		<stop  offset="1" style="stop-color:#CCCCCC"/>
	</linearGradient>
	<polygon fill="url(#SVGID_21_)" points="5.2,22.9 34.4,22.9 34.3,23.1 32.7,23.8 6.9,23.8 5.4,23.1 	"/>
	<linearGradient id="SVGID_22_" gradientUnits="userSpaceOnUse" x1="5.2376" y1="23.3437" x2="34.2416" y2="23.3437">
		<stop  offset="8.710940e-03" style="stop-color:#999999"/>
		<stop  offset="9.688231e-02" style="stop-color:#D4D4D4"/>
		<stop  offset="0.1673" style="stop-color:#FFFFFF"/>
		<stop  offset="0.8338" style="stop-color:#FFFFFF"/>
		<stop  offset="0.9355" style="stop-color:#C2C2C2"/>
		<stop  offset="1" style="stop-color:#999999"/>
	</linearGradient>
	<polygon fill="url(#SVGID_22_)" points="5.2,22.9 34.4,22.9 34.3,23.1 32.7,23.8 6.9,23.8 5.4,23.1 	"/>
	
		<radialGradient id="SVGID_23_" cx="20.3765" cy="20.6712" r="0.5111" gradientTransform="matrix(28.8911 0 0 28.8911 -568.8565 -577.3713)" gradientUnits="userSpaceOnUse">
		<stop  offset="0.9225" style="stop-color:#B2B2B2"/>
		<stop  offset="0.9357" style="stop-color:#C3C3C3"/>
		<stop  offset="0.9603" style="stop-color:#DDDDDD"/>
		<stop  offset="0.9825" style="stop-color:#EDEDED"/>
		<stop  offset="1" style="stop-color:#F2F2F2"/>
	</radialGradient>
	<path fill="url(#SVGID_23_)" d="M32.7,15.9c-0.6-2.1-1.8-4-3.4-5.6c-2.5-2.5-5.9-3.9-9.5-3.9s-7,1.4-9.5,3.9
		c-1.6,1.6-2.7,3.5-3.4,5.6l-1.5,0.7l-0.2,0.1c0.6-2.8,2-5.4,4.1-7.5c2.8-2.8,6.6-4.4,10.6-4.4c4,0,7.7,1.6,10.6,4.4
		c2.1,2.1,3.5,4.6,4.1,7.5l-0.2-0.1L32.7,15.9z M5.2,22.9c0.6,2.8,2,5.4,4.1,7.5c2.8,2.8,6.6,4.4,10.6,4.4c4,0,7.7-1.6,10.6-4.4
		c2.1-2.1,3.5-4.6,4.1-7.5l-0.2,0.1l-1.5,0.7c-0.6,2.1-1.8,4-3.4,5.6c-2.5,2.5-5.9,3.9-9.5,3.9s-7-1.4-9.5-3.9
		c-1.6-1.6-2.7-3.5-3.4-5.6l-1.5-0.7L5.2,22.9z"/>
	
		<radialGradient id="SVGID_24_" cx="20.3485" cy="20.6327" r="0.7054" fx="19.6448" fy="20.681" gradientTransform="matrix(7.2651 27.9627 -31.1586 8.0955 514.0869 -717.301)" gradientUnits="userSpaceOnUse">
		<stop  offset="0.4023" style="stop-color:#E5E5E5"/>
		<stop  offset="0.5633" style="stop-color:#E3E3E3"/>
		<stop  offset="0.637" style="stop-color:#DCDCDC"/>
		<stop  offset="0.693" style="stop-color:#CFCFCF"/>
		<stop  offset="0.74" style="stop-color:#BDBDBD"/>
		<stop  offset="0.7814" style="stop-color:#A5A5A5"/>
		<stop  offset="0.8188" style="stop-color:#888888"/>
		<stop  offset="0.8525" style="stop-color:#666666"/>
		<stop  offset="0.8837" style="stop-color:#404040"/>
	</radialGradient>
	<path fill="url(#SVGID_24_)" d="M34.8,8.1L34.8,8.1c2.7,3.4,4,7.5,4,11.7c0,5.1-2,9.9-5.6,13.4c-3.6,3.6-8.4,5.6-13.4,5.6
		c-5.1,0-9.9-2-13.4-5.6c-3.6-3.6-5.6-8.4-5.6-13.4s2-9.9,5.6-13.4s8.4-5.6,13.4-5.6c4.2,0,8.3,1.4,11.6,3.9l0.1,0.1l-0.1-1.1
		C28.1,1.3,24.1,0,19.8,0c-5.3,0-10.3,2.1-14,5.8C2.1,9.6,0,14.5,0,19.8s2.1,10.3,5.8,14c3.7,3.7,8.7,5.8,14,5.8
		c5.3,0,10.3-2.1,14-5.8c3.7-3.7,5.8-8.7,5.8-14c0-4.2-1.3-8.3-3.8-11.6L34.8,8.1z"/>
</g>
<g>
	<linearGradient id="SVGID_25_" gradientUnits="userSpaceOnUse" x1="32.3834" y1="4.4016" x2="32.3803" y2="3.0178">
		<stop  offset="2.396490e-02" style="stop-color:#E6E6E6"/>
		<stop  offset="5.433590e-02" style="stop-color:#E5E5E5"/>
		<stop  offset="0.2285" style="stop-color:#E1E1E1"/>
		<stop  offset="0.4212" style="stop-color:#D4D4D4"/>
		<stop  offset="0.6229" style="stop-color:#BEBEBE"/>
		<stop  offset="0.8293" style="stop-color:#9F9F9F"/>
		<stop  offset="1" style="stop-color:#808080"/>
	</linearGradient>
	<polygon fill="url(#SVGID_25_)" points="31.5,4.8 33.3,3.1 32,3.2 31.5,3.8 	"/>
	
		<radialGradient id="SVGID_26_" cx="20.4542" cy="20.8584" r="0.7256" fx="20.1231" fy="20.9105" gradientTransform="matrix(28.8911 0 0 28.8911 -568.8565 -577.3713)" gradientUnits="userSpaceOnUse">
		<stop  offset="1.876830e-02" style="stop-color:#F2F2F2"/>
		<stop  offset="0.2542" style="stop-color:#ECECEC"/>
		<stop  offset="0.5682" style="stop-color:#DBDBDB"/>
		<stop  offset="0.6075" style="stop-color:#D9D9D9"/>
		<stop  offset="0.6481" style="stop-color:#D3D3D3"/>
		<stop  offset="0.7006" style="stop-color:#C3C3C3"/>
		<stop  offset="0.7597" style="stop-color:#A8A8A8"/>
		<stop  offset="0.8237" style="stop-color:#838383"/>
		<stop  offset="0.8915" style="stop-color:#535353"/>
		<stop  offset="0.9615" style="stop-color:#1A1A1A"/>
		<stop  offset="0.99" style="stop-color:#000000"/>
	</radialGradient>
	<path fill="url(#SVGID_26_)" d="M32.7,15.9c-0.6-2.1-1.8-4-3.4-5.6c-2.5-2.5-5.9-3.9-9.5-3.9s-7,1.4-9.5,3.9
		c-1.6,1.6-2.7,3.5-3.4,5.6l-1.5,0.7l-0.2,0.1c0.6-2.8,2-5.4,4.1-7.5c2.8-2.8,6.6-4.4,10.6-4.4c4,0,7.7,1.6,10.6,4.4
		c2.1,2.1,3.5,4.6,4.1,7.5l-0.2-0.1L32.7,15.9z M5.2,22.9c0.6,2.8,2,5.4,4.1,7.5c2.8,2.8,6.6,4.4,10.6,4.4c4,0,7.7-1.6,10.6-4.4
		c2.1-2.1,3.5-4.6,4.1-7.5l-0.2,0.1l-1.5,0.7c-0.6,2.1-1.8,4-3.4,5.6c-2.5,2.5-5.9,3.9-9.5,3.9s-7-1.4-9.5-3.9
		c-1.6-1.6-2.7-3.5-3.4-5.6l-1.5-0.7L5.2,22.9z"/>
</g>
<linearGradient id="SVGID_27_" gradientUnits="userSpaceOnUse" x1="14.9739" y1="0.4325" x2="36.3557" y2="15.9713">
	<stop  offset="3.089840e-02" style="stop-color:#FFFFFF;stop-opacity:0"/>
	<stop  offset="0.4121" style="stop-color:#FFFFFF;stop-opacity:0"/>
	<stop  offset="0.5359" style="stop-color:#FAFAFA;stop-opacity:0.2347"/>
	<stop  offset="0.6769" style="stop-color:#EDEDED;stop-opacity:0.5018"/>
	<stop  offset="0.8256" style="stop-color:#D6D6D6;stop-opacity:0.7837"/>
	<stop  offset="0.9398" style="stop-color:#BFBFBF"/>
	<stop  offset="0.969" style="stop-color:#C1C1C1;stop-opacity:0.5145"/>
	<stop  offset="0.9798" style="stop-color:#C8C8C8;stop-opacity:0.3354"/>
	<stop  offset="0.9875" style="stop-color:#D4D4D4;stop-opacity:0.2069"/>
	<stop  offset="0.9938" style="stop-color:#E5E5E5;stop-opacity:0.1034"/>
	<stop  offset="0.9991" style="stop-color:#FBFBFB;stop-opacity:1.477313e-02"/>
	<stop  offset="1" style="stop-color:#FFFFFF;stop-opacity:0"/>
</linearGradient>
<path fill="url(#SVGID_27_)" d="M19.8,4.9c4,0,7.7,1.6,10.6,4.4c2.1,2.1,3.5,4.6,4.1,7.5l-0.2-0.1l-1.5-0.7c-0.6-2.1-1.8-4-3.4-5.6
	c-2.5-2.5-5.9-3.9-9.5-3.9L19.8,4.9z"/>
<linearGradient id="SVGID_28_" gradientUnits="userSpaceOnUse" x1="26.6196" y1="4.6929" x2="27.5461" y2="16.7901">
	<stop  offset="0.3113" style="stop-color:#FFFFFF;stop-opacity:0"/>
	<stop  offset="0.6504" style="stop-color:#FDFDFD;stop-opacity:0.4923"/>
	<stop  offset="0.7725" style="stop-color:#F6F6F6;stop-opacity:0.6696"/>
	<stop  offset="0.8595" style="stop-color:#EBEBEB;stop-opacity:0.796"/>
	<stop  offset="0.9297" style="stop-color:#DADADA;stop-opacity:0.898"/>
	<stop  offset="0.9893" style="stop-color:#C4C4C4;stop-opacity:0.9845"/>
	<stop  offset="1" style="stop-color:#BFBFBF"/>
</linearGradient>
<path fill="url(#SVGID_28_)" d="M19.8,4.9c4,0,7.7,1.6,10.6,4.4c2.1,2.1,3.5,4.6,4.1,7.5l-0.2-0.1l-1.5-0.7c-0.6-2.1-1.8-4-3.4-5.6
	c-2.5-2.5-5.9-3.9-9.5-3.9L19.8,4.9z"/>
<g>
	<defs>
		<path id="SVGID_29_" d="M5.2,22.9c0.6,2.8,2,5.4,4.1,7.5c2.8,2.8,6.6,4.4,10.6,4.4c4,0,7.7-1.6,10.6-4.4c2.1-2.1,3.5-4.6,4.1-7.5
			l-0.2,0.1l-1.5,0.7c-0.6,2.1-1.8,4-3.4,5.6c-2.5,2.5-5.9,3.9-9.5,3.9s-7-1.4-9.5-3.9c-1.6-1.6-2.7-3.5-3.4-5.6l-1.5-0.7L5.2,22.9z
			"/>
	</defs>
	<clipPath id="SVGID_30_">
		<use xlink:href="#SVGID_29_"  overflow="visible"/>
	</clipPath>
	
		<radialGradient id="SVGID_31_" cx="20.3765" cy="20.6349" r="0.5376" fx="19.8529" fy="20.6356" gradientTransform="matrix(7.598960e-02 28.891 -32.9623 8.669806e-02 698.4674 -571.6931)" gradientUnits="userSpaceOnUse">
		<stop  offset="0.8299" style="stop-color:#FFFFFF"/>
		<stop  offset="0.8318" style="stop-color:#E2E2E2"/>
		<stop  offset="0.8348" style="stop-color:#BCBCBC"/>
		<stop  offset="0.8381" style="stop-color:#9A9A9A"/>
		<stop  offset="0.8417" style="stop-color:#7E7E7E"/>
		<stop  offset="0.8457" style="stop-color:#676767"/>
		<stop  offset="0.8504" style="stop-color:#555555"/>
		<stop  offset="0.856" style="stop-color:#494949"/>
		<stop  offset="0.8636" style="stop-color:#424242"/>
		<stop  offset="0.8817" style="stop-color:#404040"/>
		<stop  offset="0.8901" style="stop-color:#424242;stop-opacity:0.7777"/>
		<stop  offset="0.8958" style="stop-color:#4B4B4B;stop-opacity:0.6288"/>
		<stop  offset="0.9006" style="stop-color:#5B5B5B;stop-opacity:0.5015"/>
		<stop  offset="0.9049" style="stop-color:#707070;stop-opacity:0.3863"/>
		<stop  offset="0.909" style="stop-color:#8C8C8C;stop-opacity:0.2792"/>
		<stop  offset="0.9128" style="stop-color:#AEAEAE;stop-opacity:0.1781"/>
		<stop  offset="0.9164" style="stop-color:#D5D5D5;stop-opacity:8.363950e-02"/>
		<stop  offset="0.9195" style="stop-color:#FFFFFF;stop-opacity:0"/>
		<stop  offset="0.9975" style="stop-color:#FFFFFF"/>
	</radialGradient>
	<path clip-path="url(#SVGID_30_)" fill="url(#SVGID_31_)" d="M19.8,33.3c-3.6,0-7-1.4-9.5-3.9c-2.5-2.5-3.9-5.9-3.9-9.5
		c0-3.6,1.4-7,3.9-9.5c2.5-2.5,5.9-3.9,9.5-3.9s7,1.4,9.5,3.9c2.5,2.5,3.9,5.9,3.9,9.5c0,3.6-1.4,7-3.9,9.5
		C26.8,31.9,23.4,33.3,19.8,33.3z M30.4,30.4c2.8-2.8,4.4-6.6,4.4-10.6c0-4-1.6-7.7-4.4-10.6c-2.8-2.8-6.6-4.4-10.6-4.4
		S12.1,6.5,9.3,9.3c-2.8,2.8-4.4,6.6-4.4,10.6c0,4,1.6,7.7,4.4,10.6c2.8,2.8,6.6,4.4,10.6,4.4S27.6,33.2,30.4,30.4z"/>
</g>
<g>
	<g>
		<polygon fill="#182871" points="22.8,18.6 24.5,21.7 26.4,21.7 28.1,18.6 28.9,18.6 28.9,18 26.4,18 26.4,18.6 27.1,18.6 
			25.9,20.8 24.7,18.6 25.6,18.6 25.6,18 21.9,18 21.9,18.6 		"/>
		<polygon fill="#182871" points="6.6,18.6 8.3,21.7 10.3,21.7 11.9,18.6 12.8,18.6 12.8,18 10.2,18 10.2,18.6 11,18.6 9.8,20.8 
			8.5,18.6 9.4,18.6 9.4,18 5.8,18 5.8,18.6 		"/>
	</g>
	<path fill="#182871" d="M17.8,18.6l0-0.6l3.4,0v0.6h-0.8v2.5h0.8c0.7,0,1.2-0.5,1.2-1.1h0.6v1.7l-5,0v-0.6h0.8l0-2.5H17.8z"/>
	<path fill="#182871" d="M15,17.9c-1.7,0-2.6,0.8-2.6,1.9c0,1.1,0.9,1.9,2.6,1.9c1.7,0,2.6-0.9,2.6-1.9C17.6,18.8,16.7,17.9,15,17.9
		 M15,21.2c-0.6,0-0.9-0.7-0.9-1.4c0-0.7,0.3-1.3,0.9-1.3c0.6,0,0.9,0.6,0.9,1.3C15.9,20.5,15.6,21.2,15,21.2"/>
	<path fill="#182871" d="M31.2,17.9c-1.7,0-2.6,0.8-2.6,1.9c0,1.1,0.9,1.9,2.6,1.9c1.7,0,2.6-0.9,2.6-1.9
		C33.8,18.8,32.9,17.9,31.2,17.9 M31.2,21.2c-0.6,0-0.9-0.7-0.9-1.4c0-0.7,0.3-1.3,0.9-1.3c0.6,0,0.9,0.6,0.9,1.3
		C32.1,20.5,31.8,21.2,31.2,21.2"/>
</g>
<g>
	
		<radialGradient id="SVGID_32_" cx="20.5551" cy="21.2283" r="1.1549" fx="19.4578" fy="21.2236" gradientTransform="matrix(28.8911 0 0 28.8911 -568.8565 -577.3713)" gradientUnits="userSpaceOnUse">
		<stop  offset="0.4469" style="stop-color:#FFFFFF"/>
		<stop  offset="0.5665" style="stop-color:#FCFCFC"/>
		<stop  offset="0.6433" style="stop-color:#F4F4F4"/>
		<stop  offset="0.7081" style="stop-color:#E5E5E5"/>
		<stop  offset="0.7662" style="stop-color:#D0D0D0"/>
		<stop  offset="0.8199" style="stop-color:#B5B5B5"/>
		<stop  offset="0.8703" style="stop-color:#939393"/>
		<stop  offset="0.9181" style="stop-color:#6C6C6C"/>
		<stop  offset="0.9627" style="stop-color:#3F3F3F"/>
		<stop  offset="0.9846" style="stop-color:#262626"/>
	</radialGradient>
	<path fill="url(#SVGID_32_)" d="M5.1,16.9c0.6-2.9,2-5.6,4.1-7.7c2.8-2.8,6.6-4.4,10.7-4.4s7.8,1.6,10.7,4.4
		c2.1,2.1,3.6,4.8,4.1,7.7l-0.3-0.3c-0.6-2.7-2-5.2-4-7.2c-2.8-2.8-6.5-4.3-10.5-4.3S12.2,6.6,9.4,9.4c-2,2-3.4,4.5-4,7.2L5.1,16.9z
		 M34.3,23.1c-0.6,2.7-2,5.2-4,7.2c-2.8,2.8-6.5,4.3-10.5,4.3s-7.7-1.5-10.5-4.3c-2-2-3.4-4.5-4-7.2l-0.3-0.3c0.6,2.9,2,5.6,4.1,7.7
		c2.8,2.8,6.6,4.4,10.7,4.4s7.8-1.6,10.7-4.4c2.1-2.1,3.6-4.8,4.1-7.7L34.3,23.1z"/>
	<linearGradient id="SVGID_33_" gradientUnits="userSpaceOnUse" x1="30.7275" y1="1.1348" x2="30.091" y2="1.0623">
		<stop  offset="0" style="stop-color:#F2F2F2"/>
		<stop  offset="0.2413" style="stop-color:#EFEFEF"/>
		<stop  offset="0.4448" style="stop-color:#E5E5E5"/>
		<stop  offset="0.6346" style="stop-color:#D3D3D3"/>
		<stop  offset="0.816" style="stop-color:#BABABA"/>
		<stop  offset="0.9901" style="stop-color:#9B9B9B"/>
		<stop  offset="1" style="stop-color:#999999"/>
	</linearGradient>
	<polygon fill="url(#SVGID_33_)" points="30.3,1.2 30.3,1 30.8,1.2 	"/>
	<linearGradient id="SVGID_34_" gradientUnits="userSpaceOnUse" x1="38.5478" y1="8.8408" x2="38.6287" y2="9.6125">
		<stop  offset="0" style="stop-color:#A6A6A6"/>
		<stop  offset="1" style="stop-color:#595959"/>
	</linearGradient>
	<polygon fill="url(#SVGID_34_)" points="38.7,9.4 38.5,9.4 38.5,8.9 	"/>
	
		<radialGradient id="SVGID_35_" cx="20.361" cy="20.6841" r="0.7799" gradientTransform="matrix(28.8911 0 0 28.8911 -568.8565 -577.3713)" gradientUnits="userSpaceOnUse">
		<stop  offset="0.7746" style="stop-color:#737373"/>
		<stop  offset="0.9492" style="stop-color:#B0B0B0"/>
		<stop  offset="0.9908" style="stop-color:#BFBFBF"/>
	</radialGradient>
	<path fill="url(#SVGID_35_)" d="M33.5,3.1c-0.8-0.7-1.7-1.3-2.7-1.9l-0.6,0c1,0.6,1.9,1.2,2.8,1.9L33.5,3.1z"/>
	
		<radialGradient id="SVGID_36_" cx="20.3848" cy="20.6704" r="0.7822" gradientTransform="matrix(28.8911 0 0 28.8911 -568.8565 -577.3713)" gradientUnits="userSpaceOnUse">
		<stop  offset="0.9587" style="stop-color:#707070"/>
		<stop  offset="0.9706" style="stop-color:#595959"/>
		<stop  offset="0.9726" style="stop-color:#656565"/>
		<stop  offset="0.9862" style="stop-color:#B2B2B2"/>
	</radialGradient>
	<path fill="url(#SVGID_36_)" d="M36.6,6.6c0.7,0.9,1.3,1.8,1.9,2.8l0-0.6c-0.5-0.9-1.2-1.8-1.9-2.7L36.6,6.6z"/>
	<linearGradient id="SVGID_37_" gradientUnits="userSpaceOnUse" x1="32.7711" y1="4.7172" x2="32.1195" y2="2.9596">
		<stop  offset="0" style="stop-color:#FFFFFF"/>
		<stop  offset="0.3556" style="stop-color:#C9C9C9"/>
		<stop  offset="0.7404" style="stop-color:#949494"/>
		<stop  offset="0.9284" style="stop-color:#808080"/>
	</linearGradient>
	<polygon fill="url(#SVGID_37_)" points="31.6,5 33.5,3.1 33.1,3.1 31.5,4.7 	"/>
	<linearGradient id="SVGID_38_" gradientUnits="userSpaceOnUse" x1="35.6112" y1="7.1453" x2="35.9647" y2="7.4859">
		<stop  offset="3.341080e-02" style="stop-color:#666666"/>
		<stop  offset="0.9906" style="stop-color:#404040"/>
	</linearGradient>
	<polygon fill="url(#SVGID_38_)" points="35,8.2 36.6,6.6 36.6,6.2 34.7,8.1 	"/>
	
		<radialGradient id="SVGID_39_" cx="20.3765" cy="20.6712" r="0.8118" fx="20.1371" fy="19.9031" gradientTransform="matrix(28.8909 -0.1123 0.1023 26.3253 -570.9677 -522.0441)" gradientUnits="userSpaceOnUse">
		<stop  offset="0.5128" style="stop-color:#FFFFFF"/>
		<stop  offset="0.5871" style="stop-color:#FCFCFC"/>
		<stop  offset="0.6462" style="stop-color:#F2F2F2"/>
		<stop  offset="0.7" style="stop-color:#E1E1E1"/>
		<stop  offset="0.7507" style="stop-color:#C9C9C9"/>
		<stop  offset="0.7992" style="stop-color:#ABABAB"/>
		<stop  offset="0.8461" style="stop-color:#858585"/>
		<stop  offset="0.8908" style="stop-color:#5A5A5A"/>
		<stop  offset="0.925" style="stop-color:#333333"/>
	</radialGradient>
	<path fill="url(#SVGID_39_)" d="M34.7,8.1c2.6,3.3,4.1,7.4,4.1,11.7c0,5-2,9.8-5.5,13.3c-3.6,3.6-8.3,5.5-13.3,5.5
		c-5,0-9.8-2-13.3-5.5S1,24.9,1,19.8c0-5,2-9.8,5.5-13.3C10.1,2.9,14.8,1,19.8,1c4.3,0,8.4,1.4,11.7,4.1l0-0.4
		c-3.2-2.5-7.3-4-11.7-4C9.3,0.7,0.7,9.3,0.7,19.8S9.3,39,19.8,39S39,30.4,39,19.8c0-4.4-1.5-8.4-4-11.7L34.7,8.1z"/>
	<linearGradient id="SVGID_40_" gradientUnits="userSpaceOnUse" x1="38.4656" y1="5.1871" x2="38.5692" y2="5.1871">
		<stop  offset="0" style="stop-color:#B2B2B2"/>
		<stop  offset="0.533" style="stop-color:#A2A2A2"/>
		<stop  offset="1" style="stop-color:#999999"/>
	</linearGradient>
	<polygon fill="url(#SVGID_40_)" points="38.5,1.2 38.5,8.9 38.7,9.4 38.7,1 	"/>
	<linearGradient id="SVGID_41_" gradientUnits="userSpaceOnUse" x1="34.5063" y1="0.8881" x2="34.5063" y2="1.2189">
		<stop  offset="0.2017" style="stop-color:#E0E0E0"/>
		<stop  offset="0.3976" style="stop-color:#EBEBEB"/>
		<stop  offset="0.6403" style="stop-color:#FFFFFF"/>
	</linearGradient>
	<polygon fill="url(#SVGID_41_)" points="38.7,1 30.3,1 30.8,1.2 38.5,1.2 	"/>
	<g>
		<g>
			<linearGradient id="SVGID_42_" gradientUnits="userSpaceOnUse" x1="19.8416" y1="23.068" x2="19.8416" y2="22.7927">
				<stop  offset="0" style="stop-color:#404040"/>
				<stop  offset="0.1247" style="stop-color:#545454"/>
				<stop  offset="0.5402" style="stop-color:#959595"/>
				<stop  offset="0.8433" style="stop-color:#BDBDBD"/>
				<stop  offset="1" style="stop-color:#CCCCCC"/>
			</linearGradient>
			<polygon fill="url(#SVGID_42_)" points="5.1,22.8 34.6,22.8 34.3,23.1 5.4,23.1 			"/>
		</g>
	</g>
	<g>
		<g>
			<linearGradient id="SVGID_43_" gradientUnits="userSpaceOnUse" x1="19.8416" y1="16.617" x2="19.8416" y2="16.8924">
				<stop  offset="0.1678" style="stop-color:#A6A6A6"/>
				<stop  offset="0.3364" style="stop-color:#BBBBBB"/>
				<stop  offset="0.6881" style="stop-color:#E3E3E3"/>
				<stop  offset="0.8708" style="stop-color:#F2F2F2"/>
			</linearGradient>
			<polygon fill="url(#SVGID_43_)" points="34.6,16.9 5.1,16.9 5.4,16.6 34.3,16.6 			"/>
		</g>
	</g>
</g>
</svg>
